<?xml version="1.0" encoding="UTF-8" standalone="no"?>
<!DOCTYPE svg PUBLIC "-//W3C//DTD SVG 1.1//EN" "http://www.w3.org/Graphics/SVG/1.1/DTD/svg11.dtd">
<svg xmlns="http://www.w3.org/2000/svg" version="1.1" viewBox="0.00 0.00 1024.00 1024.00">
<path fill="#000000" d="
  M 787.24 334.22
  Q 786.07 335.47 785.45 335.89
  Q 752.79 358.12 719.52 380.59
  A 1.76 1.75 -35.6 0 1 717.14 380.20
  Q 713.28 375.13 709.24 370.26
  C 657.46 307.90 568.22 292.45 501.62 340.87
  C 478.45 357.72 459.29 383.26 448.99 409.23
  C 430.99 454.64 436.76 504.15 462.50 546.30
  A 1.77 1.77 0.0 0 1 461.93 548.72
  L 394.90 591.17
  Q 393.61 591.39 392.86 590.17
  C 341.72 507.08 343.04 405.04 399.77 325.49
  C 433.45 278.25 486.80 242.83 543.98 232.13
  Q 592.37 223.07 640.48 233.39
  C 701.14 246.41 749.38 280.56 785.47 330.52
  Q 786.98 332.61 787.24 334.22
  Z"
/>
<path fill="#ffc409" d="
  M 640.19 450.30
  Q 673.55 511.81 668.00 580.00
  C 658.01 702.82 554.31 799.99 429.72 797.24
  C 358.30 795.67 292.48 761.42 248.13 705.91
  L 237.34 690.86
  A 1.36 1.36 0.0 0 1 237.69 688.94
  L 302.92 645.18
  A 2.19 2.18 55.6 0 1 305.93 645.75
  C 335.08 687.41 381.08 713.30 432.75 713.26
  C 473.62 713.23 510.94 697.89 539.43 669.07
  C 570.37 637.78 587.68 592.19 583.55 548.65
  C 581.26 524.57 572.53 500.31 560.26 479.66
  A 1.88 1.87 58.6 0 1 560.87 477.12
  L 628.97 434.18
  A 1.28 1.27 -31.6 0 1 630.74 434.60
  L 640.19 450.30
  Z"
/>
</svg>
