<?xml version="1.0" encoding="UTF-8" standalone="no"?>
<!DOCTYPE svg PUBLIC "-//W3C//DTD SVG 1.1//EN" "http://www.w3.org/Graphics/SVG/1.1/DTD/svg11.dtd">
<svg xmlns="http://www.w3.org/2000/svg" version="1.1" viewBox="0.00 0.00 600.00 600.00">
<path fill="#000000" d="
  M 372.50 28.03
  C 455.74 25.32 531.39 63.82 578.44 132.35
  Q 579.89 134.47 577.65 135.98
  Q 544.48 158.27 511.38 180.66
  A 1.55 1.55 0.0 0 1 509.31 180.35
  Q 505.58 175.74 501.49 170.75
  C 452.72 111.12 368.00 93.55 302.20 135.05
  C 274.73 152.37 253.21 178.99 241.13 208.90
  C 222.93 253.98 229.02 304.96 254.46 346.03
  A 2.03 2.02 58.0 0 1 253.82 348.81
  L 187.51 390.81
  Q 185.93 391.81 184.94 390.22
  C 111.44 271.67 150.90 119.28 273.87 54.19
  Q 320.06 29.74 372.50 28.03
  Z"
/>
<path fill="#ffc409" d="
  M 360.92 426.94
  Q 387.17 371.83 367.73 313.65
  Q 362.39 297.67 352.31 279.71
  C 351.27 277.85 352.92 277.14 354.22 276.33
  Q 387.21 255.51 420.77 234.35
  Q 421.91 233.64 422.64 234.76
  C 457.17 287.77 469.12 350.57 454.98 412.79
  C 433.12 508.98 354.20 582.39 256.38 595.36
  C 168.78 606.98 77.61 565.07 29.27 490.42
  A 0.99 0.98 -33.4 0 1 29.55 489.07
  Q 62.11 467.23 94.83 445.38
  C 96.52 444.25 97.56 445.17 98.60 446.64
  C 142.21 508.33 222.77 531.58 291.45 498.01
  C 321.90 483.13 346.42 457.39 360.92 426.94
  Z"
/>
</svg>
